<?xml version="1.0" standalone="no"?>
<!DOCTYPE svg PUBLIC "-//W3C//DTD SVG 20010904//EN"
 "http://www.w3.org/TR/2001/REC-SVG-20010904/DTD/svg10.dtd">
<svg version="1.0" xmlns="http://www.w3.org/2000/svg"
 width="849.000000pt" height="849.000000pt" viewBox="0 0 849.000000 849.000000"
 preserveAspectRatio="xMidYMid meet">
<metadata>
Created by potrace 1.11, written by Peter Selinger 2001-2013
</metadata>
<g transform="translate(0.000000,849.000000) scale(0.100000,-0.100000)"
fill="#000000" stroke="none">
<path d="M5818 7115 c-2 -1 -41 -5 -88 -9 -47 -3 -94 -8 -105 -10 -11 -2 -69
-7 -130 -11 -60 -3 -126 -8 -145 -10 -19 -2 -78 -6 -130 -10 -52 -3 -117 -8
-145 -10 -27 -2 -97 -7 -155 -10 -58 -3 -131 -11 -162 -16 -32 -5 -76 -12 -98
-14 -22 -2 -44 -6 -48 -9 -4 -2 -34 -7 -67 -10 -33 -4 -67 -9 -75 -11 -8 -2
-35 -6 -60 -9 -25 -3 -54 -8 -65 -10 -26 -5 -94 -14 -170 -21 -83 -9 -272 -51
-380 -85 -85 -27 -153 -42 -255 -55 -25 -3 -63 -8 -85 -11 -58 -8 -110 -22
-200 -54 -76 -28 -336 -106 -380 -114 -59 -11 -305 -102 -408 -150 -241 -114
-511 -254 -602 -311 -50 -32 -148 -84 -162 -86 -24 -4 -52 -24 -63 -44 -15
-28 -19 -101 -5 -98 6 0 39 4 75 8 36 4 68 9 73 12 4 2 7 -3 7 -11 0 -8 -9
-18 -20 -21 -11 -3 -20 -11 -20 -17 0 -13 83 -89 120 -111 26 -16 29 -15 49 2
21 18 26 18 70 5 43 -12 53 -12 98 4 27 10 121 65 209 124 87 59 179 114 204
124 24 10 72 35 105 55 66 40 142 69 180 69 13 0 36 11 52 24 15 12 38 28 50
34 23 13 126 38 184 47 45 6 71 15 149 52 37 18 125 44 205 61 78 17 152 35
165 40 14 4 45 9 70 11 35 2 50 8 67 28 12 15 19 32 16 37 -4 6 3 3 15 -8 18
-16 32 -18 96 -13 42 4 104 14 138 23 74 19 78 20 188 39 113 19 174 28 295
41 39 4 75 8 80 9 6 1 20 3 33 3 13 1 21 6 17 11 -10 17 58 28 160 25 73 -2
124 2 189 17 49 11 116 20 150 21 65 1 88 9 122 39 15 14 29 18 52 13 18 -4
32 -11 32 -16 0 -9 181 -4 255 7 22 3 58 13 80 22 34 13 87 15 345 14 371 -3
585 -11 685 -27 155 -24 355 -83 550 -162 55 -22 147 -57 205 -77 118 -41 201
-89 370 -215 161 -122 201 -165 254 -283 44 -95 59 -179 59 -327 -1 -146 -13
-210 -57 -284 -13 -23 -118 -134 -233 -247 l-208 -205 -188 -112 c-104 -62
-192 -112 -197 -112 -4 0 -10 -3 -12 -8 -6 -14 -219 -134 -413 -232 -230 -116
-325 -160 -560 -257 -99 -41 -204 -85 -233 -99 -29 -13 -55 -24 -58 -24 -5 0
-67 -26 -119 -50 -139 -64 -719 -300 -737 -300 -9 0 -2 345 7 360 2 3 0 12 -6
20 -6 10 -9 11 -9 3 0 -7 -4 -13 -8 -13 -4 0 -9 31 -10 69 l-3 70 36 7 c35 6
35 7 29 43 -4 20 -7 41 -6 46 0 6 4 40 8 76 7 73 2 110 -21 132 -11 12 -12 26
-5 73 15 96 19 141 25 299 2 83 8 218 11 300 9 209 5 463 -11 620 -21 206 -21
213 -46 303 -22 83 -51 149 -90 207 -15 23 -44 73 -64 113 l-38 72 -26 -17
c-53 -34 -78 -79 -75 -133 5 -99 15 -264 20 -333 13 -165 6 -754 -11 -900 -2
-18 -6 -59 -9 -92 -4 -33 -9 -71 -11 -85 -2 -14 -7 -43 -10 -65 -3 -22 -10
-62 -15 -90 -5 -27 -11 -61 -14 -75 -16 -93 -60 -231 -176 -550 -54 -149 -57
-161 -65 -223 -4 -28 -12 -59 -19 -67 -34 -42 -46 -113 -27 -163 13 -32 48
-66 87 -83 31 -13 41 -15 124 -29 79 -13 76 -20 -17 -54 -48 -18 -97 -36 -108
-41 -11 -4 -33 -13 -50 -18 -16 -6 -39 -14 -50 -18 -11 -4 -22 -8 -25 -9 -40
-11 -578 -193 -700 -237 -359 -129 -515 -192 -735 -301 -77 -38 -174 -82 -215
-99 -73 -28 -292 -137 -590 -292 -471 -246 -705 -358 -1055 -505 -320 -135
-530 -238 -720 -354 -72 -44 -184 -109 -250 -144 -145 -78 -155 -87 -155 -130
0 -26 5 -36 23 -42 12 -5 29 -7 37 -5 63 13 402 104 520 140 148 45 156 47
245 64 28 6 59 12 70 14 24 6 136 46 314 115 182 71 210 84 406 180 93 45 206
96 249 112 44 16 94 43 113 59 18 17 39 31 46 31 7 1 23 2 37 3 14 1 41 16 59
34 19 18 51 37 73 42 40 11 142 54 269 113 91 42 164 65 239 72 78 8 98 13
160 42 85 39 201 86 448 183 125 48 277 112 337 141 107 51 116 53 232 58 12
1 38 15 57 32 19 17 50 32 68 35 65 8 138 26 143 35 4 5 13 5 25 -1 29 -15 70
-12 130 11 71 27 73 28 59 45 -18 22 -7 25 39 8 38 -13 46 -12 73 1 16 9 27
20 24 25 -4 6 0 10 7 11 61 3 213 50 275 84 35 19 107 46 161 59 125 32 186
54 297 106 50 23 119 53 155 67 36 14 80 41 99 60 33 33 37 34 90 29 31 -4 70
-3 86 2 26 8 30 13 27 42 -2 33 -2 33 18 15 18 -16 24 -16 66 -5 97 27 169 62
366 177 70 40 156 86 191 102 34 16 93 49 131 75 37 25 87 51 112 57 25 7 57
24 73 41 20 21 41 31 69 34 73 7 323 164 547 345 39 31 97 71 130 89 80 44
149 102 210 174 36 43 72 71 130 103 95 53 111 67 181 158 82 108 91 117 116
113 22 -3 78 40 78 60 0 4 16 16 35 26 19 11 41 29 50 42 41 62 105 187 105
203 0 5 14 19 30 31 33 24 102 156 120 230 6 25 13 53 15 64 7 31 18 158 18
211 0 291 -144 542 -413 720 -95 63 -119 76 -305 175 -55 29 -134 72 -175 95
-183 103 -276 141 -385 158 -16 3 -65 19 -108 37 -79 31 -194 64 -264 75 -21
3 -49 7 -62 10 -13 2 -52 7 -85 10 -34 3 -68 7 -76 10 -8 2 -62 7 -120 10 -58
4 -118 8 -135 10 -55 7 -532 24 -537 20z"/>
</g>
</svg>
